<svg width="20" height="20" viewBox="0 0 20 20" fill="none" xmlns="http://www.w3.org/2000/svg">
<path d="M13.3337 6.66667V10.8333C13.3337 11.4964 13.5971 12.1323 14.0659 12.6011C14.5347 13.0699 15.1706 13.3333 15.8337 13.3333C16.4967 13.3333 17.1326 13.0699 17.6014 12.6011C18.0703 12.1323 18.3337 11.4964 18.3337 10.8333V10C18.3336 8.1192 17.6972 6.29374 16.5281 4.82045C15.3589 3.34716 13.7258 2.31269 11.8942 1.88525C10.0626 1.45781 8.14028 1.66254 6.43979 2.46615C4.7393 3.26975 3.36066 4.62497 2.52805 6.31144C1.69543 7.99792 1.45781 9.91645 1.85381 11.7551C2.24981 13.5937 3.25615 15.2444 4.70919 16.4386C6.16224 17.6328 7.97653 18.3003 9.85706 18.3326C11.7376 18.365 13.5738 17.7602 15.067 16.6167M13.3337 10C13.3337 11.841 11.8413 13.3333 10.0003 13.3333C8.15939 13.3333 6.667 11.841 6.667 10C6.667 8.15906 8.15939 6.66667 10.0003 6.66667C11.8413 6.66667 13.3337 8.15906 13.3337 10Z" stroke="#D0D5DD" stroke-width="2" stroke-linecap="round" stroke-linejoin="round"/>
</svg>
